frame=    0 fps=0.0 q=0.0 size=       0kB time=00:00:00.41 bitrate=   0.0kbits/s speed=0.83x    frame=    0 fps=0.0 q=0.0 size=       0kB time=00:00:00.89 bitrate=   0.0kbits/s speed=0.895x    frame=   18 fps= 12 q=12.2 size=     101kB time=00:00:01.42 bitrate= 580.5kbits/s speed=0.944x    frame=   18 fps=9.0 q=12.2 size=     101kB time=00:00:01.90 bitrate= 434.1kbits/s speed=0.946x    frame=   49 fps= 19 q=11.7 size=     164kB time=00:00:02.40 bitrate= 556.7kbits/s speed=0.957x    frame=   49 fps= 16 q=11.7 size=     164kB time=00:00:02.93 bitrate= 456.6kbits/s speed=0.972x    frame=   80 fps= 23 q=16.3 size=     206kB time=00:00:03.43 bitrate= 490.7kbits/s speed=0.975x    frame=   80 fps= 20 q=16.3 size=     206kB time=00:00:03.94 bitrate= 428.0kbits/s speed=0.979x    frame=  111 fps= 24 q=16.3 size=     259kB time=00:00:04.44 bitrate= 476.2kbits/s speed=0.98x    frame=  111 fps= 22 q=16.3 size=     259kB time=00:00:04.92 bitrate= 429.8kbits/s speed=0.978x    frame=  142 fps= 26 q=18.0 size=     297kB time=00:00:05.45 bitrate= 445.3kbits/s speed=0.984x    frame=  142 fps= 23 q=18.0 size=     297kB time=00:00:05.95 bitrate= 407.6kbits/s speed=0.985x    frame=  172 fps= 26 q=26.3 size=     343kB time=00:00:06.43 bitrate= 436.4kbits/s speed=0.983x    frame=  172 fps= 24 q=26.3 size=     343kB time=00:00:06.96 bitrate= 403.4kbits/s speed=0.988x    frame=  203 fps= 27 q=29.5 size=     378kB time=00:00:07.47 bitrate= 414.7kbits/s speed=0.988x    frame=  203 fps= 25 q=29.5 size=     378kB time=00:00:07.97 bitrate= 388.5kbits/s speed=0.989x    frame=  234 fps= 27 q=19.6 size=     420kB time=00:00:08.47 bitrate= 405.7kbits/s speed=0.989x    frame=  236 fps= 26 q=21.3 size=     421kB time=00:00:08.95 bitrate= 384.7kbits/s speed=0.987x    frame=  264 fps= 28 q=24.0 size=     452kB time=00:00:09.48 bitrate= 390.0kbits/s speed=0.99x    frame=  266 fps= 26 q=24.4 size=     462kB time=00:00:09.96 bitrate= 380.1kbits/s speed=0.987x    frame=  295 fps= 28 q=25.9 size=     493kB time=00:00:10.49 bitrate= 384.5kbits/s speed=0.99x    frame=  298 fps= 27 q=26.1 size=     494kB time=00:00:10.97 bitrate= 368.5kbits/s speed=0.988x    frame=  326 fps= 28 q=29.6 size=     533kB time=00:00:11.52 bitrate= 378.6kbits/s speed=0.992x    frame=  337 fps= 28 q=24.8 size=     546kB time=00:00:11.98 bitrate= 373.3kbits/s speed=0.989x    frame=  357 fps= 28 q=24.8 size=     562kB time=00:00:12.53 bitrate= 367.1kbits/s speed=0.993x    frame=  373 fps= 28 q=18.0 size=     586kB time=00:00:12.96 bitrate= 370.4kbits/s speed=0.988x    frame=  388 fps= 28 q=31.0 size=     600kB time=00:00:13.54 bitrate= 363.1kbits/s speed=0.994x    frame=  403 fps= 29 q=31.0 size=     615kB time=00:00:13.97 bitrate= 360.7kbits/s speed=0.989x    frame=  419 fps= 29 q=31.0 size=     631kB time=00:00:14.52 bitrate= 356.0kbits/s speed=0.992x    frame=  427 fps= 28 q=31.0 size=     643kB time=00:00:14.98 bitrate= 351.4kbits/s speed=0.99x    frame=  450 fps= 29 q=25.6 size=     669kB time=00:00:15.53 bitrate= 352.7kbits/s speed=0.993x    frame=  467 fps= 29 q=31.0 size=     683kB time=00:00:15.99 bitrate= 349.8kbits/s speed=0.991x    frame=  481 fps= 29 q=23.0 size=     705kB time=00:00:16.56 bitrate= 348.6kbits/s speed=0.995x    frame=  498 fps= 29 q=30.6 size=     719kB time=00:00:16.99 bitrate= 346.3kbits/s speed=0.991x    frame=  512 fps= 29 q=26.5 size=     732kB time=00:00:17.45 bitrate= 343.3kbits/s speed=0.988x    frame=  517 fps= 28 q=19.3 size=     743kB time=00:00:17.98 bitrate= 338.5kbits/s speed=0.99x    frame=  543 fps= 29 q=31.0 size=     768kB time=00:00:18.13 bitrate= 346.8kbits/s speed=0.971x    frame=  559 fps= 29 q=31.0 size=     781kB time=00:00:18.99 bitrate= 337.0kbits/s speed=0.99x    frame=  574 fps= 29 q=31.0 size=     794kB time=00:00:19.16 bitrate= 339.5kbits/s speed=0.974x    frame=  589 fps= 29 q=24.8 size=     816kB time=00:00:19.99 bitrate= 334.2kbits/s speed=0.991x    frame=  604 fps= 29 q=31.0 size=     828kB time=00:00:20.16 bitrate= 336.5kbits/s speed=0.975x    frame=  619 fps= 29 q=31.0 size=     843kB time=00:00:21.00 bitrate= 328.8kbits/s speed=0.991x    frame=  635 fps= 29 q=31.0 size=     857kB time=00:00:21.20 bitrate= 331.0kbits/s speed=0.977x    frame=  650 fps= 29 q=31.0 size=     879kB time=00:00:21.99 bitrate= 327.3kbits/s speed=0.991x    frame=  665 fps= 29 q=31.0 size=     893kB time=00:00:22.20 bitrate= 329.5kbits/s speed=0.978x    frame=  674 fps= 29 q=31.0 size=     905kB time=00:00:22.99 bitrate= 322.3kbits/s speed=0.991x    frame=  695 fps= 29 q=31.0 size=     919kB time=00:00:23.20 bitrate= 324.4kbits/s speed=0.978x    frame=  708 fps= 29 q=31.0 size=     930kB time=00:00:24.00 bitrate= 317.5kbits/s speed=0.991x    frame=  726 fps= 29 q=31.0 size=     952kB time=00:00:24.23 bitrate= 321.7kbits/s speed=0.98x    frame=  741 fps= 29 q=31.0 size=     964kB time=00:00:25.01 bitrate= 315.7kbits/s speed=0.991x    frame=  756 fps= 29 q=31.0 size=     979kB time=00:00:25.23 bitrate= 317.9kbits/s speed=0.98x    frame=  772 fps= 29 q=31.0 size=    1001kB time=00:00:26.02 bitrate= 315.1kbits/s speed=0.991x    frame=  787 fps= 29 q=31.0 size=    1014kB time=00:00:26.26 bitrate= 316.2kbits/s speed=0.982x    frame=  802 fps= 29 q=31.0 size=    1028kB time=00:00:27.00 bitrate= 311.9kbits/s speed=0.991x    frame=  817 fps= 29 q=24.8 size=    1050kB time=00:00:27.26 bitrate= 315.4kbits/s speed=0.982x    frame=  832 fps= 29 q=31.0 size=    1062kB time=00:00:28.01 bitrate= 310.5kbits/s speed=0.991x    frame=  847 fps= 29 q=31.0 size=    1074kB time=00:00:28.26 bitrate= 311.1kbits/s speed=0.982x    frame=  862 fps= 29 q=31.0 size=    1085kB time=00:00:29.02 bitrate= 306.3kbits/s speed=0.991x    frame=  877 fps= 29 q=24.8 size=    1106kB time=00:00:29.26 bitrate= 309.5kbits/s speed=0.983x    frame=  893 fps= 29 q=31.0 size=    1118kB time=00:00:30.03 bitrate= 305.0kbits/s speed=0.991x    frame=  908 fps= 29 q=31.0 size=    1130kB time=00:00:30.30 bitrate= 305.5kbits/s speed=0.984x    frame=  915 fps= 29 q=31.0 size=    1141kB time=00:00:31.20 bitrate= 299.4kbits/s speed=0.997x    frame=  915 fps= 29 q=31.0 size=    1141kB time=00:00:31.71 bitrate= 294.6kbits/s speed=0.997x    frame=  946 fps= 29 q=31.0 size=    1167kB time=00:00:32.21 bitrate= 296.8kbits/s speed=0.997x    frame=  946 fps= 29 q=31.0 size=    1167kB time=00:00:32.74 bitrate= 292.0kbits/s speed=0.998x    frame=  977 fps= 29 q=31.0 size=    1204kB time=00:00:33.22 bitrate= 296.8kbits/s speed=0.997x    frame=  977 fps= 29 q=31.0 size=    1204kB time=00:00:33.72 bitrate= 292.3kbits/s speed=0.997x    frame= 1008 fps= 29 q=31.0 size=    1230kB time=00:00:34.23 bitrate= 294.4kbits/s speed=0.997x    frame= 1008 fps= 29 q=31.0 size=    1230kB time=00:00:34.73 bitrate= 290.2kbits/s speed=0.997x    frame= 1039 fps= 29 q=31.0 size=    1269kB time=00:00:35.23 bitrate= 295.1kbits/s speed=0.997x    frame= 1039 fps= 29 q=31.0 size=    1269kB time=00:00:35.74 bitrate= 290.9kbits/s speed=0.997x    frame= 1061 fps= 29 q=31.0 size=    1297kB time=00:00:36.03 bitrate= 294.8kbits/s speed=0.992x    frame= 1070 fps= 29 q=31.0 size=    1309kB time=00:00:36.75 bitrate= 291.7kbits/s speed=0.997x    frame= 1095 fps= 29 q=31.0 size=    1337kB time=00:00:37.03 bitrate= 295.6kbits/s speed=0.992x    frame= 1101 fps= 29 q=31.0 size=    1339kB time=00:00:37.75 bitrate= 290.6kbits/s speed=0.998x    frame= 1132 fps= 30 q=31.0 size=    1378kB time=00:00:38.26 bitrate= 295.0kbits/s speed=0.998x    frame= 1132 fps= 29 q=31.0 size=    1378kB time=00:00:38.76 bitrate= 291.2kbits/s speed=0.998x    frame= 1163 fps= 30 q=31.0 size=    1406kB time=00:00:39.27 bitrate= 293.2kbits/s speed=0.997x    frame= 1163 fps= 29 q=31.0 size=    1406kB time=00:00:39.77 bitrate= 289.5kbits/s speed=0.998x    frame= 1194 fps= 30 q=31.0 size=    1442kB time=00:00:40.27 bitrate= 293.3kbits/s speed=0.998x    frame= 1194 fps= 29 q=31.0 size=    1442kB time=00:00:40.78 bitrate= 289.7kbits/s speed=0.998x    frame= 1225 fps= 30 q=24.8 size=    1478kB time=00:00:41.07 bitrate= 294.9kbits/s speed=0.992x    frame= 1225 fps= 29 q=24.8 size=    1478kB time=00:00:41.79 bitrate= 289.8kbits/s speed=0.998x    frame= 1256 fps= 30 q=31.0 size=    1506kB time=00:00:42.05 bitrate= 293.3kbits/s speed=0.992x    frame= 1256 fps= 29 q=31.0 size=    1506kB time=00:00:42.79 bitrate= 288.2kbits/s speed=0.998x    frame= 1286 fps= 30 q=31.0 size=    1540kB time=00:00:43.06 bitrate= 293.0kbits/s speed=0.992x    frame= 1287 fps= 29 q=31.0 size=    1540kB time=00:00:43.80 bitrate= 288.0kbits/s speed=0.998x    frame= 1316 fps= 30 q=31.0 size=    1568kB time=00:00:44.07 bitrate= 291.4kbits/s speed=0.993x    frame= 1318 fps= 29 q=31.0 size=    1568kB time=00:00:44.81 bitrate= 286.6kbits/s speed=0.998x    frame= 1346 fps= 30 q=31.0 size=    1604kB time=00:00:45.05 bitrate= 291.6kbits/s speed=0.992x    frame= 1349 fps= 29 q=31.0 size=    1605kB time=00:00:45.79 bitrate= 287.0kbits/s speed=0.998x    frame= 1376 fps= 30 q=31.0 size=    1630kB time=00:00:46.06 bitrate= 289.9kbits/s speed=0.993x    frame= 1380 fps= 29 q=31.0 size=    1632kB time=00:00:46.80 bitrate= 285.6kbits/s speed=0.998x    frame= 1407 fps= 30 q=31.0 size=    1669kB time=00:00:47.07 bitrate= 290.5kbits/s speed=0.993x    frame= 1411 fps= 29 q=31.0 size=    1671kB time=00:00:47.83 bitrate= 286.1kbits/s speed=0.998x    frame= 1437 fps= 30 q=31.0 size=    1699kB time=00:00:48.07 bitrate= 289.4kbits/s speed=0.993x    frame= 1442 fps= 29 q=31.0 size=    1709kB time=00:00:48.87 bitrate= 286.5kbits/s speed=0.998x    frame= 1468 fps= 30 q=31.0 size=    1736kB time=00:00:49.06 bitrate= 289.9kbits/s speed=0.992x    frame= 1473 fps= 29 q=31.0 size=    1738kB time=00:00:49.85 bitrate= 285.6kbits/s speed=0.998x    frame= 1498 fps= 30 q=31.0 size=    1765kB time=00:00:50.07 bitrate= 288.7kbits/s speed=0.992x    frame= 1504 fps= 30 q=31.0 size=    1776kB time=00:00:50.86 bitrate= 286.0kbits/s speed=0.998x    frame= 1528 fps= 30 q=31.0 size=    1804kB time=00:00:51.07 bitrate= 289.3kbits/s speed=0.993x    frame= 1535 fps= 30 q=31.0 size=    1807kB time=00:00:51.87 bitrate= 285.5kbits/s speed=0.998x    frame= 1558 fps= 30 q=31.0 size=    1830kB time=00:00:52.08 bitrate= 287.9kbits/s speed=0.993x    frame= 1566 fps= 30 q=31.0 size=    1841kB time=00:00:52.87 bitrate= 285.2kbits/s speed=0.998x    frame= 1588 fps= 30 q=31.0 size=    1867kB time=00:00:53.09 bitrate= 288.0kbits/s speed=0.993x    frame= 1597 fps= 30 q=24.8 size=    1878kB time=00:00:53.86 bitrate= 285.6kbits/s speed=0.998x    frame= 1619 fps= 30 q=31.0 size=    1893kB time=00:00:54.07 bitrate= 286.7kbits/s speed=0.993x    frame= 1628 fps= 30 q=31.0 size=    1904kB time=00:00:54.89 bitrate= 284.2kbits/s speed=0.998x    frame= 1649 fps= 30 q=31.0 size=    1928kB time=00:00:55.08 bitrate= 286.7kbits/s speed=0.993x    frame= 1659 fps= 30 q=31.0 size=    1940kB time=00:00:55.90 bitrate= 284.3kbits/s speed=0.999x    frame= 1679 fps= 30 q=31.0 size=    1955kB time=00:00:56.09 bitrate= 285.5kbits/s speed=0.993x    frame= 1690 fps= 30 q=31.0 size=    1967kB time=00:00:56.91 bitrate= 283.2kbits/s speed=0.999x    frame= 1709 fps= 30 q=31.0 size=    1992kB time=00:00:57.10 bitrate= 285.8kbits/s speed=0.993x    frame= 1721 fps= 30 q=31.0 size=    2004kB time=00:00:57.89 bitrate= 283.5kbits/s speed=0.998x    frame= 1740 fps= 30 q=31.0 size=    2019kB time=00:00:58.08 bitrate= 284.7kbits/s speed=0.993x    frame= 1752 fps= 30 q=31.0 size=    2033kB time=00:00:58.92 bitrate= 282.6kbits/s speed=0.998x    frame= 1770 fps= 30 q=31.0 size=    2054kB time=00:00:59.09 bitrate= 284.8kbits/s speed=0.993x    frame= 1783 fps= 30 q=31.0 size=    2067kB time=00:00:59.67 bitrate= 283.8kbits/s speed=0.994x    frame= 1800 fps= 30 q=31.0 size=    2080kB time=00:01:00.10 bitrate= 283.5kbits/s speed=0.993x    frame= 1814 fps= 30 q=31.0 size=    2101kB time=00:01:00.50 bitrate= 284.5kbits/s speed=0.991x    frame= 1830 fps= 30 q=31.0 size=    2116kB time=00:01:01.11 bitrate= 283.7kbits/s speed=0.993x    frame= 1845 fps= 30 q=31.0 size=    2130kB time=00:01:01.53 bitrate= 283.6kbits/s speed=0.992x    frame= 1861 fps= 30 q=24.8 size=    2153kB time=00:01:02.11 bitrate= 283.9kbits/s speed=0.993x    frame= 1875 fps= 30 q=31.0 size=    2167kB time=00:01:02.53 bitrate= 283.9kbits/s speed=0.992x    frame= 1889 fps= 30 q=31.0 size=    2180kB time=00:01:03.10 bitrate= 283.0kbits/s speed=0.993x    frame= 1905 fps= 30 q=31.0 size=    2195kB time=00:01:03.56 bitrate= 282.9kbits/s speed=0.992x    frame= 1905 fps= 30 q=31.0 size=    2195kB time=00:01:04.47 bitrate= 278.9kbits/s speed=0.998x    frame= 1905 fps= 29 q=31.0 size=    2195kB time=00:01:04.99 bitrate= 276.6kbits/s speed=0.999x    frame= 1936 fps= 30 q=31.0 size=    2231kB time=00:01:05.47 bitrate= 279.1kbits/s speed=0.998x    frame= 1936 fps= 29 q=31.0 size=    2231kB time=00:01:05.98 bitrate= 276.9kbits/s speed=0.999x    frame= 1966 fps= 30 q=31.0 size=    2258kB time=00:01:06.51 bitrate= 278.2kbits/s speed=0.999x    frame= 1966 fps= 29 q=31.0 size=    2258kB time=00:01:06.99 bitrate= 276.2kbits/s speed=0.998x    frame= 1997 fps= 30 q=31.0 size=    2295kB time=00:01:07.49 bitrate= 278.6kbits/s speed=0.998x    frame= 1997 fps= 29 q=31.0 size=    2295kB time=00:01:08.02 bitrate= 276.4kbits/s speed=0.999x    frame= 2028 fps= 30 q=31.0 size=    2324kB time=00:01:08.50 bitrate= 277.9kbits/s speed=0.998x    frame= 2028 fps= 29 q=31.0 size=    2324kB time=00:01:09.03 bitrate= 275.8kbits/s speed=0.999x    frame= 2059 fps= 30 q=31.0 size=    2360kB time=00:01:09.53 bitrate= 278.1kbits/s speed=0.999x    frame= 2059 fps= 29 q=31.0 size=    2360kB time=00:01:10.03 bitrate= 276.0kbits/s speed=0.999x    frame= 2090 fps= 30 q=31.0 size=    2397kB time=00:01:10.56 bitrate= 278.2kbits/s speed=0.999x    frame= 2090 fps= 29 q=31.0 size=    2397kB time=00:01:11.04 bitrate= 276.3kbits/s speed=0.999x    frame= 2121 fps= 30 q=31.0 size=    2423kB time=00:01:11.55 bitrate= 277.4kbits/s speed=0.999x    frame= 2121 fps= 29 q=31.0 size=    2423kB time=00:01:12.07 bitrate= 275.4kbits/s speed=0.999x    frame= 2152 fps= 30 q=31.0 size=    2457kB time=00:01:12.55 bitrate= 277.4kbits/s speed=0.999x    frame= 2152 fps= 29 q=31.0 size=    2457kB time=00:01:13.06 bitrate= 275.5kbits/s speed=0.998x    frame= 2183 fps= 30 q=31.0 size=    2483kB time=00:01:13.59 bitrate= 276.4kbits/s speed=0.999x    frame= 2183 fps= 29 q=31.0 size=    2483kB time=00:01:14.07 bitrate= 274.6kbits/s speed=0.999x    frame= 2214 fps= 30 q=31.0 size=    2522kB time=00:01:14.59 bitrate= 276.9kbits/s speed=0.999x    frame= 2214 fps= 29 q=31.0 size=    2522kB time=00:01:15.10 bitrate= 275.0kbits/s speed=0.999x    frame= 2245 fps= 30 q=24.8 size=    2560kB time=00:01:15.58 bitrate= 277.5kbits/s speed=0.999x    frame= 2245 fps= 29 q=24.8 size=    2560kB time=00:01:16.11 bitrate= 275.6kbits/s speed=0.999x    frame= 2274 fps= 30 q=31.0 size=    2588kB time=00:01:16.61 bitrate= 276.7kbits/s speed=0.999x    frame= 2274 fps= 29 q=31.0 size=    2588kB time=00:01:17.11 bitrate= 274.9kbits/s speed=0.999x    frame= 2305 fps= 30 q=24.8 size=    2625kB time=00:01:17.62 bitrate= 277.0kbits/s speed=0.999x    frame= 2305 fps= 29 q=24.8 size=    2625kB time=00:01:18.12 bitrate= 275.2kbits/s speed=0.999x    frame= 2336 fps= 30 q=31.0 size=    2652kB time=00:01:18.63 bitrate= 276.3kbits/s speed=0.999x    frame= 2336 fps= 29 q=31.0 size=    2652kB time=00:01:19.13 bitrate= 274.5kbits/s speed=0.999x    frame= 2367 fps= 30 q=31.0 size=    2688kB time=00:01:19.63 bitrate= 276.5kbits/s speed=0.999x    frame= 2367 fps= 29 q=31.0 size=    2688kB time=00:01:20.16 bitrate= 274.7kbits/s speed=0.999x    frame= 2398 fps= 30 q=31.0 size=    2713kB time=00:01:20.64 bitrate= 275.6kbits/s speed=0.999x    frame= 2398 fps= 30 q=31.0 size=    2713kB time=00:01:21.15 bitrate= 273.9kbits/s speed=0.999x    frame= 2429 fps= 30 q=31.0 size=    2747kB time=00:01:21.67 bitrate= 275.5kbits/s speed=0.999x    frame= 2429 fps= 30 q=31.0 size=    2747kB time=00:01:22.15 bitrate= 273.9kbits/s speed=0.999x    frame= 2460 fps= 30 q=31.0 size=    2771kB time=00:01:22.66 bitrate= 274.6kbits/s speed=0.999x    frame= 2460 fps= 30 q=31.0 size=    2771kB time=00:01:23.16 bitrate= 272.9kbits/s speed=0.999x    frame= 2491 fps= 30 q=31.0 size=    2806kB time=00:01:23.67 bitrate= 274.7kbits/s speed=0.999x    frame= 2492 fps= 30 q=31.0 size=    2806kB time=00:01:24.17 bitrate= 273.1kbits/s speed=0.999x    frame= 2522 fps= 30 q=31.0 size=    2840kB time=00:01:24.65 bitrate= 274.8kbits/s speed=0.999x    frame= 2523 fps= 30 q=31.0 size=    2840kB time=00:01:25.15 bitrate= 273.2kbits/s speed=0.999x    frame= 2553 fps= 30 q=31.0 size=    2864kB time=00:01:25.26 bitrate= 275.2kbits/s speed=0.994x    frame= 2554 fps= 30 q=31.0 size=    2865kB time=00:01:26.16 bitrate= 272.3kbits/s speed=0.999x    frame= 2583 fps= 30 q=31.0 size=    2900kB time=00:01:26.26 bitrate= 275.4kbits/s speed=0.994x    frame= 2586 fps= 30 q=31.0 size=    2901kB time=00:01:27.17 bitrate= 272.6kbits/s speed=0.999x    frame= 2614 fps= 30 q=31.0 size=    2928kB time=00:01:27.30 bitrate= 274.8kbits/s speed=0.994x    frame= 2617 fps= 30 q=24.8 size=    2938kB time=00:01:28.18 bitrate= 272.9kbits/s speed=0.999x    frame= 2644 fps= 30 q=31.0 size=    2965kB time=00:01:28.30 bitrate= 275.1kbits/s speed=0.994x    frame= 2652 fps= 30 q=31.0 size=    2967kB time=00:01:29.19 bitrate= 272.5kbits/s speed=0.999x    frame= 2674 fps= 30 q=31.0 size=    2991kB time=00:01:29.30 bitrate= 274.4kbits/s speed=0.994x    frame= 2684 fps= 30 q=31.0 size=    3003kB time=00:01:30.17 bitrate= 272.8kbits/s speed=0.998x    frame= 2705 fps= 30 q=31.0 size=    3027kB time=00:01:30.33 bitrate= 274.5kbits/s speed=0.995x    frame= 2720 fps= 30 q=31.0 size=    3039kB time=00:01:31.18 bitrate= 273.1kbits/s speed=0.998x    frame= 2735 fps= 30 q=31.0 size=    3052kB time=00:01:31.33 bitrate= 273.7kbits/s speed=0.994x    frame= 2750 fps= 30 q=31.0 size=    3073kB time=00:01:32.19 bitrate= 273.1kbits/s speed=0.998x    frame= 2765 fps= 30 q=31.0 size=    3085kB time=00:01:32.33 bitrate= 273.7kbits/s speed=0.994x    frame= 2781 fps= 30 q=31.0 size=    3099kB time=00:01:33.19 bitrate= 272.4kbits/s speed=0.998x    frame= 2796 fps= 30 q=31.0 size=    3111kB time=00:01:33.36 bitrate= 273.0kbits/s speed=0.995x    frame= 2811 fps= 30 q=31.0 size=    3133kB time=00:01:34.18 bitrate= 272.5kbits/s speed=0.998x    frame= 2826 fps= 30 q=31.0 size=    3145kB time=00:01:34.36 bitrate= 273.0kbits/s speed=0.995x    frame= 2841 fps= 30 q=31.0 size=    3158kB time=00:01:35.19 bitrate= 271.8kbits/s speed=0.998x    frame= 2856 fps= 30 q=31.0 size=    3170kB time=00:01:35.36 bitrate= 272.3kbits/s speed=0.995x    frame= 2871 fps= 30 q=31.0 size=    3191kB time=00:01:36.19 bitrate= 271.8kbits/s speed=0.998x    frame= 2886 fps= 30 q=31.0 size=    3204kB time=00:01:36.36 bitrate= 272.4kbits/s speed=0.995x    frame= 2902 fps= 30 q=31.0 size=    3218kB time=00:01:37.20 bitrate= 271.2kbits/s speed=0.998x    frame= 2917 fps= 30 q=24.8 size=    3242kB time=00:01:37.40 bitrate= 272.7kbits/s speed=0.995x    frame= 2932 fps= 30 q=31.0 size=    3257kB time=00:01:38.21 bitrate= 271.6kbits/s speed=0.998x    frame= 2945 fps= 30 q=31.0 size=    3269kB time=00:01:38.33 bitrate= 272.3kbits/s speed=0.994x    frame= 2959 fps= 30 q=31.0 size=    3284kB time=00:01:39.19 bitrate= 271.2kbits/s speed=0.998x    frame= 2974 fps= 30 q=31.0 size=    3300kB time=00:01:39.40 bitrate= 271.9kbits/s speed=0.995x    frame= 2984 fps= 30 q=31.0 size=    3312kB time=00:01:40.32 bitrate= 270.5kbits/s speed=0.999x    frame= 2984 fps= 30 q=31.0 size=    3312kB time=00:01:40.83 bitrate= 269.1kbits/s speed=0.999x    frame= 3015 fps= 30 q=31.0 size=    3352kB time=00:01:41.33 bitrate= 270.9kbits/s speed=0.999x    frame= 3015 fps= 30 q=31.0 size=    3352kB time=00:01:41.86 bitrate= 269.5kbits/s speed=0.999x    frame= 3046 fps= 30 q=31.0 size=    3390kB time=00:01:42.36 bitrate= 271.3kbits/s speed=0.999x    frame= 3046 fps= 30 q=31.0 size=    3390kB time=00:01:42.87 bitrate= 270.0kbits/s speed=0.999x    frame= 3077 fps= 30 q=31.0 size=    3431kB time=00:01:43.37 bitrate= 271.9kbits/s speed=0.999x    frame= 3077 fps= 30 q=31.0 size=    3431kB time=00:01:43.87 bitrate= 270.6kbits/s speed=0.999x    frame= 3108 fps= 30 q=31.0 size=    3471kB time=00:01:44.35 bitrate= 272.4kbits/s speed=0.999x    frame= 3108 fps= 30 q=31.0 size=    3471kB time=00:01:44.88 bitrate= 271.1kbits/s speed=0.999x    frame= 3139 fps= 30 q=31.0 size=    3522kB time=00:01:45.39 bitrate= 273.8kbits/s speed=0.999x    frame= 3139 fps= 30 q=31.0 size=    3522kB time=00:01:45.89 bitrate= 272.5kbits/s speed=0.999x    frame= 3167 fps= 30 q=31.0 size=    3553kB time=00:01:46.23 bitrate= 274.0kbits/s speed=0.998x    frame= 3170 fps= 30 q=31.0 size=    3563kB time=00:01:46.90 bitrate= 273.0kbits/s speed=0.999x    frame= 3200 fps= 30 q=31.0 size=    3589kB time=00:01:47.40 bitrate= 273.8kbits/s speed=0.999x    frame= 3200 fps= 30 q=31.0 size=    3589kB time=00:01:47.91 bitrate= 272.5kbits/s speed=0.999x    frame= 3231 fps= 30 q=31.0 size=    3631kB time=00:01:48.22 bitrate= 274.8kbits/s speed=0.997x    frame= 3231 fps= 30 q=31.0 size=    3631kB time=00:01:48.91 bitrate= 273.1kbits/s speed=0.999x    frame= 3261 fps= 30 q=31.0 size=    3664kB time=00:01:49.23 bitrate= 274.8kbits/s speed=0.997x    frame= 3262 fps= 30 q=31.0 size=    3665kB time=00:01:49.92 bitrate= 273.1kbits/s speed=0.999x    frame= 3289 fps= 30 q=24.8 size=    3707kB time=00:01:50.23 bitrate= 275.4kbits/s speed=0.997x    frame= 3290 fps= 30 q=31.0 size=    3707kB time=00:01:50.93 bitrate= 273.7kbits/s speed=0.999x    frame= 3319 fps= 30 q=31.0 size=    3732kB time=00:01:51.24 bitrate= 274.8kbits/s speed=0.997x    frame= 3321 fps= 30 q=31.0 size=    3733kB time=00:01:51.94 bitrate= 273.2kbits/s speed=0.999x    frame= 3349 fps= 30 q=24.8 size=    3774kB time=00:01:52.23 bitrate= 275.5kbits/s speed=0.997x    frame= 3352 fps= 30 q=31.0 size=    3775kB time=00:01:52.95 bitrate= 273.8kbits/s speed=0.999x    frame= 3379 fps= 30 q=31.0 size=    3813kB time=00:01:53.23 bitrate= 275.8kbits/s speed=0.997x    frame= 3383 fps= 30 q=31.0 size=    3816kB time=00:01:53.95 bitrate= 274.3kbits/s speed=0.999x    frame= 3410 fps= 30 q=31.0 size=    3856kB time=00:01:54.24 bitrate= 276.5kbits/s speed=0.997x    frame= 3414 fps= 30 q=31.0 size=    3858kB time=00:01:54.96 bitrate= 274.9kbits/s speed=0.999x    frame= 3440 fps= 30 q=31.0 size=    3885kB time=00:01:55.25 bitrate= 276.1kbits/s speed=0.997x    frame= 3445 fps= 30 q=24.8 size=    3896kB time=00:01:55.99 bitrate= 275.2kbits/s speed=0.999x    frame= 3471 fps= 30 q=31.0 size=    3924kB time=00:01:56.26 bitrate= 276.5kbits/s speed=0.997x    frame= 3476 fps= 30 q=31.0 size=    3925kB time=00:01:57.00 bitrate= 274.8kbits/s speed=0.999x    frame= 3500 fps= 30 q=31.0 size=    3951kB time=00:01:57.24 bitrate= 276.1kbits/s speed=0.997x    frame= 3506 fps= 30 q=31.0 size=    3962kB time=00:01:57.99 bitrate= 275.1kbits/s speed=0.999x    frame= 3530 fps= 30 q=31.0 size=    3987kB time=00:01:58.25 bitrate= 276.2kbits/s speed=0.997x    frame= 3537 fps= 30 q=31.0 size=    3989kB time=00:01:59.02 bitrate= 274.6kbits/s speed=0.999x    frame= 3561 fps= 30 q=31.0 size=    4018kB time=00:01:59.26 bitrate= 276.0kbits/s speed=0.997x    frame= 3568 fps= 30 q=31.0 size=    4029kB time=00:02:00.05 bitrate= 274.9kbits/s speed=0.999x    frame= 3591 fps= 30 q=31.0 size=    4052kB time=00:02:00.27 bitrate= 276.0kbits/s speed=0.997x    frame= 3599 fps= 30 q=31.0 size=    4055kB time=00:02:01.06 bitrate= 274.4kbits/s speed=0.999x    frame= 3622 fps= 30 q=31.0 size=    4078kB time=00:02:01.25 bitrate= 275.5kbits/s speed=0.997x    frame= 3629 fps= 30 q=31.0 size=    4088kB time=00:02:02.04 bitrate= 274.4kbits/s speed=0.999x    frame= 3651 fps= 30 q=31.0 size=    4111kB time=00:02:02.26 bitrate= 275.4kbits/s speed=0.997x    frame= 3660 fps= 30 q=31.0 size=    4114kB time=00:02:03.07 bitrate= 273.8kbits/s speed=0.999x    frame= 3681 fps= 30 q=31.0 size=    4137kB time=00:02:03.27 bitrate= 274.9kbits/s speed=0.997x    frame= 3691 fps= 30 q=31.0 size=    4148kB time=00:02:04.08 bitrate= 273.9kbits/s speed=0.999x    frame= 3711 fps= 30 q=31.0 size=    4176kB time=00:02:04.27 bitrate= 275.2kbits/s speed=0.997x    frame= 3722 fps= 30 q=31.0 size=    4189kB time=00:02:05.09 bitrate= 274.3kbits/s speed=0.999x    frame= 3742 fps= 30 q=31.0 size=    4205kB time=00:02:05.28 bitrate= 275.0kbits/s speed=0.997x    frame= 3753 fps= 30 q=31.0 size=    4218kB time=00:02:06.07 bitrate= 274.1kbits/s speed=0.999x    frame= 3772 fps= 30 q=31.0 size=    4242kB time=00:02:06.27 bitrate= 275.2kbits/s speed=0.997x    frame= 3784 fps= 30 q=31.0 size=    4254kB time=00:02:07.11 bitrate= 274.2kbits/s speed=0.999x    frame= 3802 fps= 30 q=31.0 size=    4268kB time=00:02:07.27 bitrate= 274.7kbits/s speed=0.997x    frame= 3815 fps= 30 q=31.0 size=    4281kB time=00:02:08.11 bitrate= 273.8kbits/s speed=0.999x    frame= 3832 fps= 30 q=31.0 size=    4304kB time=00:02:08.28 bitrate= 274.8kbits/s speed=0.997x    frame= 3846 fps= 30 q=31.0 size=    4318kB time=00:02:09.12 bitrate= 273.9kbits/s speed=0.999x    frame= 3863 fps= 30 q=31.0 size=    4335kB time=00:02:09.29 bitrate= 274.6kbits/s speed=0.997x    frame= 3877 fps= 30 q=24.8 size=    4360kB time=00:02:09.89 bitrate= 275.0kbits/s speed=0.997x    frame= 3893 fps= 30 q=31.0 size=    4385kB time=00:02:10.27 bitrate= 275.7kbits/s speed=0.997x    frame= 3908 fps= 30 q=31.0 size=    4401kB time=00:02:10.73 bitrate= 275.7kbits/s speed=0.996x    frame= 3923 fps= 30 q=31.0 size=    4417kB time=00:02:11.28 bitrate= 275.6kbits/s speed=0.997x    frame= 3938 fps= 30 q=31.0 size=    4462kB time=00:02:11.73 bitrate= 277.5kbits/s speed=0.996x    frame= 3953 fps= 30 q=31.0 size=    4477kB time=00:02:12.29 bitrate= 277.3kbits/s speed=0.997x    frame= 3969 fps= 30 q=31.0 size=    4494kB time=00:02:12.76 bitrate= 277.3kbits/s speed=0.996x    frame= 3970 fps= 30 q=31.0 size=    4494kB time=00:02:13.66 bitrate= 275.5kbits/s speed=0.999x    frame= 3970 fps= 30 q=31.0 size=    4494kB time=00:02:14.16 bitrate= 274.4kbits/s speed=0.999x    frame= 4001 fps= 30 q=31.0 size=    4530kB time=00:02:14.69 bitrate= 275.5kbits/s speed=0.999x    frame= 4001 fps= 30 q=31.0 size=    4530kB time=00:02:15.17 bitrate= 274.5kbits/s speed=0.999x    frame= 4032 fps= 30 q=31.0 size=    4564kB time=00:02:15.67 bitrate= 275.6kbits/s speed=0.999x    frame= 4032 fps= 30 q=31.0 size=    4564kB time=00:02:16.18 bitrate= 274.5kbits/s speed=0.999x    frame= 4063 fps= 30 q=31.0 size=    4604kB time=00:02:16.68 bitrate= 276.0kbits/s speed=0.999x    frame= 4063 fps= 30 q=31.0 size=    4604kB time=00:02:17.19 bitrate= 274.9kbits/s speed=0.999x    frame= 4094 fps= 30 q=31.0 size=    4648kB time=00:02:17.71 bitrate= 276.5kbits/s speed=0.999x    frame= 4094 fps= 30 q=31.0 size=    4648kB time=00:02:18.19 bitrate= 275.5kbits/s speed=0.999x    frame= 4125 fps= 30 q=31.0 size=    4678kB time=00:02:18.72 bitrate= 276.2kbits/s speed=0.999x    frame= 4125 fps= 30 q=31.0 size=    4678kB time=00:02:19.23 bitrate= 275.2kbits/s speed=0.999x    frame= 4156 fps= 30 q=31.0 size=    4717kB time=00:02:19.71 bitrate= 276.6kbits/s speed=0.999x    frame= 4156 fps= 30 q=31.0 size=    4717kB time=00:02:20.23 bitrate= 275.5kbits/s speed=0.999x    frame= 4187 fps= 30 q=31.0 size=    4749kB time=00:02:20.74 bitrate= 276.4kbits/s speed=0.999x    frame= 4187 fps= 30 q=31.0 size=    4749kB time=00:02:21.22 bitrate= 275.5kbits/s speed=0.999x    frame= 4218 fps= 30 q=31.0 size=    4787kB time=00:02:21.75 bitrate= 276.6kbits/s speed=0.999x    frame= 4218 fps= 30 q=31.0 size=    4787kB time=00:02:22.25 bitrate= 275.6kbits/s speed=0.999x    frame= 4249 fps= 30 q=24.8 size=    4825kB time=00:02:22.75 bitrate= 276.9kbits/s speed=0.999x    frame= 4249 fps= 30 q=24.8 size=    4825kB time=00:02:23.26 bitrate= 275.9kbits/s speed=0.999x    frame= 4280 fps= 30 q=31.0 size=    4852kB time=00:02:23.76 bitrate= 276.5kbits/s speed=0.999x    frame= 4280 fps= 30 q=31.0 size=    4852kB time=00:02:24.27 bitrate= 275.5kbits/s speed=0.999x    frame= 4311 fps= 30 q=31.0 size=    4890kB time=00:02:24.77 bitrate= 276.7kbits/s speed=0.999x    frame= 4311 fps= 30 q=31.0 size=    4890kB time=00:02:25.25 bitrate= 275.8kbits/s speed=0.999x    frame= 4342 fps= 30 q=31.0 size=    4920kB time=00:02:25.78 bitrate= 276.5kbits/s speed=0.999x    frame= 4342 fps= 30 q=31.0 size=    4920kB time=00:02:26.26 bitrate= 275.6kbits/s speed=0.999x    frame= 4373 fps= 30 q=31.0 size=    4957kB time=00:02:26.79 bitrate= 276.6kbits/s speed=0.999x    frame= 4373 fps= 30 q=31.0 size=    4957kB time=00:02:27.27 bitrate= 275.7kbits/s speed=0.999x    frame= 4404 fps= 30 q=31.0 size=    4985kB time=00:02:27.77 bitrate= 276.4kbits/s speed=0.999x    frame= 4404 fps= 30 q=31.0 size=    4985kB time=00:02:28.27 bitrate= 275.4kbits/s speed=0.999x    frame= 4435 fps= 30 q=31.0 size=    5021kB time=00:02:28.78 bitrate= 276.4kbits/s speed=0.999x    frame= 4435 fps= 30 q=31.0 size=    5021kB time=00:02:29.28 bitrate= 275.5kbits/s speed=0.999x    frame= 4466 fps= 30 q=31.0 size=    5056kB time=00:02:29.79 bitrate= 276.5kbits/s speed=0.999x    frame= 4466 fps= 30 q=31.0 size=    5056kB time=00:02:30.29 bitrate= 275.6kbits/s speed=0.999x    frame= 4497 fps= 30 q=31.0 size=    5083kB time=00:02:30.79 bitrate= 276.1kbits/s speed=0.999x    frame= 4497 fps= 30 q=31.0 size=    5083kB time=00:02:31.30 bitrate= 275.2kbits/s speed=0.999x    frame= 4524 fps= 30 q=31.0 size=    5108kB time=00:02:31.37 bitrate= 276.4kbits/s speed=0.996x    frame= 4524 fps= 30 q=31.0 size=    5108kB time=00:02:32.33 bitrate= 274.7kbits/s speed=   1x    frame= 4554 fps= 30 q=31.0 size=    5142kB time=00:02:32.40 bitrate= 276.4kbits/s speed=0.997x    frame= 4554 fps= 30 q=31.0 size=    5142kB time=00:02:33.31 bitrate= 274.7kbits/s speed=0.999x    frame= 4584 fps= 30 q=31.0 size=    5166kB time=00:02:33.40 bitrate= 275.9kbits/s speed=0.997x    frame= 4585 fps= 30 q=24.8 size=    5175kB time=00:02:34.32 bitrate= 274.7kbits/s speed=0.999x    frame= 4615 fps= 30 q=31.0 size=    5199kB time=00:02:34.43 bitrate= 275.8kbits/s speed=0.997x    frame= 4616 fps= 30 q=31.0 size=    5200kB time=00:02:35.35 bitrate= 274.2kbits/s speed=0.999x    frame= 4645 fps= 30 q=24.8 size=    5233kB time=00:02:35.43 bitrate= 275.8kbits/s speed=0.997x    frame= 4647 fps= 30 q=31.0 size=    5234kB time=00:02:36.36 bitrate= 274.2kbits/s speed=0.999x    frame= 4675 fps= 30 q=31.0 size=    5259kB time=00:02:36.43 bitrate= 275.4kbits/s speed=0.997x    frame= 4679 fps= 30 q=31.0 size=    5260kB time=00:02:37.35 bitrate= 273.8kbits/s speed=0.999x    frame= 4706 fps= 30 q=31.0 size=    5294kB time=00:02:37.46 bitrate= 275.4kbits/s speed=0.997x    frame= 4710 fps= 30 q=31.0 size=    5295kB time=00:02:38.35 bitrate= 273.9kbits/s speed=0.999x    frame= 4736 fps= 30 q=31.0 size=    5320kB time=00:02:38.46 bitrate= 275.0kbits/s speed=0.997x    frame= 4743 fps= 30 q=31.0 size=    5330kB time=00:02:39.36 bitrate= 274.0kbits/s speed=0.999x    frame= 4766 fps= 30 q=31.0 size=    5356kB time=00:02:39.46 bitrate= 275.1kbits/s speed=0.997x    frame= 4775 fps= 30 q=31.0 size=    5360kB time=00:02:40.37 bitrate= 273.8kbits/s speed=0.999x    frame= 4796 fps= 30 q=31.0 size=    5389kB time=00:02:40.46 bitrate= 275.1kbits/s speed=0.997x    frame= 4809 fps= 30 q=31.0 size=    5402kB time=00:02:41.38 bitrate= 274.2kbits/s speed=0.999x    frame= 4826 fps= 30 q=31.0 size=    5427kB time=00:02:41.46 bitrate= 275.3kbits/s speed=0.997x    frame= 4839 fps= 30 q=31.0 size=    5442kB time=00:02:42.36 bitrate= 274.6kbits/s speed=0.999x    frame= 4856 fps= 30 q=31.0 size=    5458kB time=00:02:42.46 bitrate= 275.2kbits/s speed=0.997x    frame= 4871 fps= 30 q=31.0 size=    5472kB time=00:02:43.37 bitrate= 274.4kbits/s speed=0.999x    frame= 4886 fps= 30 q=31.0 size=    5495kB time=00:02:43.50 bitrate= 275.3kbits/s speed=0.997x    frame= 4901 fps= 30 q=31.0 size=    5509kB time=00:02:44.38 bitrate= 274.6kbits/s speed=0.999x    frame= 4915 fps= 30 q=31.0 size=    5522kB time=00:02:44.46 bitrate= 275.0kbits/s speed=0.997x    frame= 4929 fps= 30 q=31.0 size=    5535kB time=00:02:45.39 bitrate= 274.1kbits/s speed=0.999x    frame= 4945 fps= 30 q=24.8 size=    5557kB time=00:02:45.53 bitrate= 275.0kbits/s speed=0.997x    frame= 4960 fps= 30 q=31.0 size=    5570kB time=00:02:46.37 bitrate= 274.3kbits/s speed=0.999x    frame= 4975 fps= 30 q=31.0 size=    5585kB time=00:02:46.53 bitrate= 274.8kbits/s speed=0.997x    frame= 4990 fps= 30 q=31.0 size=    5601kB time=00:02:47.38 bitrate= 274.1kbits/s speed=0.999x    frame= 5004 fps= 30 q=31.0 size=    5614kB time=00:02:47.50 bitrate= 274.6kbits/s speed=0.997x    frame= 5015 fps= 30 q=31.0 size=    5626kB time=00:02:48.46 bitrate= 273.6kbits/s speed=0.999x    frame= 5015 fps= 30 q=31.0 size=    5626kB time=00:02:48.96 bitrate= 272.8kbits/s speed=0.999x    frame= 5030 fps= 30 q=31.0 size=    5649kB time=00:02:49.39 bitrate= 273.2kbits/s speed=0.999x    frame= 5046 fps= 30 q=31.0 size=    5662kB time=00:02:49.97 bitrate= 272.9kbits/s speed=0.999x    frame= 5056 fps= 30 q=31.0 size=    5673kB time=00:02:50.40 bitrate= 272.7kbits/s speed=0.999x    frame= 5077 fps= 30 q=24.8 size=    5696kB time=00:02:50.98 bitrate= 272.9kbits/s speed=0.999x    frame= 5090 fps= 30 q=31.0 size=    5709kB time=00:02:51.39 bitrate= 272.9kbits/s speed=0.999x    frame= 5108 fps= 30 q=31.0 size=    5723kB time=00:02:51.99 bitrate= 272.6kbits/s speed=0.999x    frame= 5125 fps= 30 q=24.8 size=    5748kB time=00:02:52.39 bitrate= 273.1kbits/s speed=0.999x    frame= 5139 fps= 30 q=31.0 size=    5761kB time=00:02:52.99 bitrate= 272.8kbits/s speed=0.999x    frame= 5166 fps= 30 q=31.0 size=    5785kB time=00:02:53.40 bitrate= 273.3kbits/s speed=0.999x    frame= 5170 fps= 30 q=31.0 size=    5786kB time=00:02:54.00 bitrate= 272.4kbits/s speed=0.999x    frame= 5194 fps= 30 q=31.0 size=    5810kB time=00:02:54.41 bitrate= 272.9kbits/s speed=0.999x    frame= 5201 fps= 30 q=31.0 size=    5820kB time=00:02:55.01 bitrate= 272.4kbits/s speed=   1x    frame= 5229 fps= 30 q=31.0 size=    5845kB time=00:02:55.39 bitrate= 273.0kbits/s speed=0.999x    frame= 5232 fps= 30 q=31.0 size=    5845kB time=00:02:55.99 bitrate= 272.1kbits/s speed=0.999x    frame= 5257 fps= 30 q=24.8 size=    5879kB time=00:02:56.40 bitrate= 273.0kbits/s speed=0.999x    frame= 5263 fps= 30 q=31.0 size=    5880kB time=00:02:57.03 bitrate= 272.1kbits/s speed=   1x    frame= 5273 fps= 30 q=31.0 size=    5891kB time=00:02:57.41 bitrate= 272.0kbits/s speed=0.999x    frame= 5294 fps= 30 q=31.0 size=    5915kB time=00:02:58.03 bitrate= 272.2kbits/s speed=   1x    frame= 5321 fps= 30 q=31.0 size=    5942kB time=00:02:58.42 bitrate= 272.8kbits/s speed=0.999x    frame= 5325 fps= 30 q=31.0 size=    5944kB time=00:02:59.04 bitrate= 272.0kbits/s speed=   1x    frame= 5333 fps= 30 q=31.0 size=    5955kB time=00:02:59.43 bitrate= 271.9kbits/s speed=0.999x    frame= 5355 fps= 30 q=31.0 size=    5979kB time=00:03:00.05 bitrate= 272.0kbits/s speed=0.999x    frame= 5381 fps= 30 q=31.0 size=    6002kB time=00:03:00.41 bitrate= 272.5kbits/s speed=0.999x    frame= 5385 fps= 30 q=31.0 size=    6003kB time=00:03:01.08 bitrate= 271.6kbits/s speed=   1x    frame= 5411 fps= 30 q=31.0 size=    6031kB time=00:03:01.42 bitrate= 272.3kbits/s speed=0.999x    frame= 5416 fps= 30 q=31.0 size=    6041kB time=00:03:02.09 bitrate= 271.8kbits/s speed=0.999x    frame= 5440 fps= 30 q=31.0 size=    6065kB time=00:03:02.43 bitrate= 272.4kbits/s speed=0.999x    frame= 5445 fps= 30 q=31.0 size=    6066kB time=00:03:03.10 bitrate= 271.4kbits/s speed=0.999x    frame= 5468 fps= 30 q=31.0 size=    6091kB time=00:03:03.43 bitrate= 272.0kbits/s speed=0.998x    frame= 5474 fps= 30 q=31.0 size=    6102kB time=00:03:04.13 bitrate= 271.5kbits/s speed=   1x    frame= 5498 fps= 30 q=31.0 size=    6127kB time=00:03:04.42 bitrate= 272.2kbits/s speed=0.998x    frame= 5505 fps= 30 q=31.0 size=    6131kB time=00:03:05.14 bitrate= 271.3kbits/s speed=   1x    frame= 5527 fps= 30 q=31.0 size=    6160kB time=00:03:05.43 bitrate= 272.2kbits/s speed=0.998x    frame= 5533 fps= 30 q=24.8 size=    6172kB time=00:03:06.15 bitrate= 271.6kbits/s speed=   1x    frame= 5556 fps= 30 q=31.0 size=    6191kB time=00:03:06.43 bitrate= 272.0kbits/s speed=0.998x    frame= 5564 fps= 30 q=31.0 size=    6202kB time=00:03:07.13 bitrate= 271.5kbits/s speed=0.999x    frame= 5586 fps= 30 q=31.0 size=    6227kB time=00:03:07.44 bitrate= 272.1kbits/s speed=0.998x    frame= 5595 fps= 30 q=31.0 size=    6240kB time=00:03:08.16 bitrate= 271.7kbits/s speed=   1x    frame= 5617 fps= 30 q=24.8 size=    6270kB time=00:03:08.45 bitrate= 272.6kbits/s speed=0.998x    frame= 5626 fps= 30 q=31.0 size=    6274kB time=00:03:09.17 bitrate= 271.7kbits/s speed=   1x    frame= 5647 fps= 30 q=31.0 size=    6299kB time=00:03:09.43 bitrate= 272.4kbits/s speed=0.998x    frame= 5657 fps= 30 q=31.0 size=    6310kB time=00:03:10.18 bitrate= 271.8kbits/s speed=0.999x    frame= 5678 fps= 30 q=31.0 size=    6335kB time=00:03:10.44 bitrate= 272.5kbits/s speed=0.998x    frame= 5688 fps= 30 q=31.0 size=    6338kB time=00:03:11.19 bitrate= 271.6kbits/s speed=0.999x    frame= 5708 fps= 30 q=31.0 size=    6363kB time=00:03:11.45 bitrate= 272.3kbits/s speed=0.998x    frame= 5719 fps= 30 q=31.0 size=    6377kB time=00:03:12.19 bitrate= 271.8kbits/s speed=   1x    frame= 5738 fps= 30 q=31.0 size=    6405kB time=00:03:12.46 bitrate= 272.6kbits/s speed=0.998x    frame= 5750 fps= 30 q=31.0 size=    6419kB time=00:03:12.99 bitrate= 272.5kbits/s speed=0.998x    frame= 5767 fps= 30 q=31.0 size=    6434kB time=00:03:13.44 bitrate= 272.5kbits/s speed=0.998x    frame= 5781 fps= 30 q=31.0 size=    6448kB time=00:03:13.80 bitrate= 272.5kbits/s speed=0.997x    frame= 5798 fps= 30 q=31.0 size=    6471kB time=00:03:14.45 bitrate= 272.6kbits/s speed=0.998x    frame= 5812 fps= 30 q=31.0 size=    6486kB time=00:03:14.80 bitrate= 272.8kbits/s speed=0.997x    frame= 5828 fps= 30 q=31.0 size=    6501kB time=00:03:15.46 bitrate= 272.5kbits/s speed=0.998x    frame= 5843 fps= 30 q=31.0 size=    6517kB time=00:03:15.83 bitrate= 272.6kbits/s speed=0.997x    frame= 5857 fps= 30 q=24.8 size=    6541kB time=00:03:16.47 bitrate= 272.7kbits/s speed=0.998x    frame= 5872 fps= 30 q=31.0 size=    6555kB time=00:03:16.80 bitrate= 272.9kbits/s speed=0.997x    frame= 5888 fps= 30 q=31.0 size=    6571kB time=00:03:17.47 bitrate= 272.6kbits/s speed=0.998x    frame= 5903 fps= 30 q=31.0 size=    6586kB time=00:03:17.86 bitrate= 272.7kbits/s speed=0.997x    frame= 5918 fps= 30 q=31.0 size=    6614kB time=00:03:18.46 bitrate= 273.0kbits/s speed=0.998x    frame= 5932 fps= 30 q=31.0 size=    6628kB time=00:03:18.83 bitrate= 273.1kbits/s speed=0.997x    frame= 5948 fps= 30 q=31.0 size=    6642kB time=00:03:19.47 bitrate= 272.8kbits/s speed=0.998x    frame= 5963 fps= 30 q=31.0 size=    6655kB time=00:03:19.90 bitrate= 272.7kbits/s speed=0.998x    frame= 5978 fps= 30 q=31.0 size=    6677kB time=00:03:20.47 bitrate= 272.8kbits/s speed=0.998x    frame= 5993 fps= 30 q=31.0 size=    6692kB time=00:03:20.90 bitrate= 272.9kbits/s speed=0.997x    frame= 5996 fps= 30 q=31.0 size=    6694kB time=00:03:21.82 bitrate= 271.7kbits/s speed=   1x    frame= 5996 fps= 30 q=31.0 size=    6694kB time=00:03:22.32 bitrate= 271.0kbits/s speed=   1x    frame= 6026 fps= 30 q=31.0 size=    6736kB time=00:03:22.83 bitrate= 272.0kbits/s speed=   1x    frame= 6026 fps= 30 q=31.0 size=    6736kB time=00:03:23.33 bitrate= 271.4kbits/s speed=   1x    frame= 6056 fps= 30 q=31.0 size=    6766kB time=00:03:23.83 bitrate= 271.9kbits/s speed=   1x    frame= 6056 fps= 30 q=31.0 size=    6766kB time=00:03:24.34 bitrate= 271.3kbits/s speed=   1x    frame= 6087 fps= 30 q=31.0 size=    6806kB time=00:03:24.84 bitrate= 272.2kbits/s speed=   1x    frame= 6087 fps= 30 q=31.0 size=    6806kB time=00:03:25.35 bitrate= 271.5kbits/s speed=   1x    frame= 6118 fps= 30 q=31.0 size=    6837kB time=00:03:25.87 bitrate= 272.1kbits/s speed=   1x    frame= 6118 fps= 30 q=31.0 size=    6837kB time=00:03:26.35 bitrate= 271.4kbits/s speed=0.999x    frame= 6148 fps= 30 q=31.0 size=    6877kB time=00:03:26.88 bitrate= 272.3kbits/s speed=   1x    frame= 6148 fps= 30 q=31.0 size=    6877kB time=00:03:27.36 bitrate= 271.7kbits/s speed=   1x    frame= 6178 fps= 30 q=31.0 size=    6909kB time=00:03:27.87 bitrate= 272.3kbits/s speed=   1x    frame= 6178 fps= 30 q=31.0 size=    6909kB time=00:03:28.37 bitrate= 271.6kbits/s speed=   1x    frame= 6205 fps= 30 q=24.8 size=    6945kB time=00:03:28.87 bitrate= 272.4kbits/s speed=   1x    frame= 6205 fps= 30 q=24.8 size=    6945kB time=00:03:29.38 bitrate= 271.7kbits/s speed=   1x    frame= 6234 fps= 30 q=31.0 size=    6976kB time=00:03:29.88 bitrate= 272.3kbits/s speed=   1x    frame= 6234 fps= 30 q=31.0 size=    6976kB time=00:03:30.39 bitrate= 271.6kbits/s speed=   1x    frame= 6264 fps= 30 q=31.0 size=    7009kB time=00:03:30.89 bitrate= 272.3kbits/s speed=   1x    frame= 6264 fps= 30 q=31.0 size=    7009kB time=00:03:31.39 bitrate= 271.6kbits/s speed=   1x    frame= 6292 fps= 30 q=31.0 size=    7045kB time=00:03:31.90 bitrate= 272.4kbits/s speed=   1x    frame= 6292 fps= 30 q=31.0 size=    7045kB time=00:03:32.43 bitrate= 271.7kbits/s speed=   1x    frame= 6319 fps= 30 q=31.0 size=    7074kB time=00:03:32.91 bitrate= 272.2kbits/s speed=   1x    frame= 6319 fps= 30 q=31.0 size=    7074kB time=00:03:33.41 bitrate= 271.5kbits/s speed=   1x    frame= 6348 fps= 30 q=31.0 size=    7107kB time=00:03:33.94 bitrate= 272.1kbits/s speed=   1x    frame= 6348 fps= 30 q=31.0 size=    7107kB time=00:03:34.42 bitrate= 271.5kbits/s speed=   1x    frame= 6379 fps= 30 q=31.0 size=    7146kB time=00:03:34.95 bitrate= 272.3kbits/s speed=   1x    frame= 6379 fps= 30 q=31.0 size=    7146kB time=00:03:35.45 bitrate= 271.7kbits/s speed=   1x    frame= 6410 fps= 30 q=31.0 size=    7185kB time=00:03:35.93 bitrate= 272.6kbits/s speed=0.999x    frame= 6410 fps= 30 q=31.0 size=    7185kB time=00:03:36.46 bitrate= 271.9kbits/s speed=   1x    frame= 6439 fps= 30 q=31.0 size=    7216kB time=00:03:36.65 bitrate= 272.8kbits/s speed=0.998x    frame= 6439 fps= 30 q=31.0 size=    7216kB time=00:03:37.44 bitrate= 271.8kbits/s speed=0.999x    frame= 6469 fps= 30 q=24.8 size=    7261kB time=00:03:37.51 bitrate= 273.4kbits/s speed=0.997x    frame= 6469 fps= 30 q=24.8 size=    7261kB time=00:03:38.47 bitrate= 272.2kbits/s speed=   1x    frame= 6498 fps= 30 q=31.0 size=    7298kB time=00:03:38.52 bitrate= 273.6kbits/s speed=0.998x    frame= 6499 fps= 30 q=31.0 size=    7298kB time=00:03:39.48 bitrate= 272.4kbits/s speed=   1x    frame= 6526 fps= 30 q=31.0 size=    7329kB time=00:03:39.53 bitrate= 273.5kbits/s speed=0.998x    frame= 6528 fps= 30 q=31.0 size=    7330kB time=00:03:40.49 bitrate= 272.3kbits/s speed=   1x    frame= 6557 fps= 30 q=31.0 size=    7370kB time=00:03:40.56 bitrate= 273.7kbits/s speed=0.998x    frame= 6559 fps= 30 q=31.0 size=    7371kB time=00:03:41.47 bitrate= 272.6kbits/s speed=   1x    frame= 6585 fps= 30 q=31.0 size=    7397kB time=00:03:41.52 bitrate= 273.6kbits/s speed=0.997x    frame= 6588 fps= 30 q=31.0 size=    7398kB time=00:03:42.51 bitrate= 272.4kbits/s speed=   1x    frame= 6615 fps= 30 q=31.0 size=    7437kB time=00:03:42.56 bitrate= 273.7kbits/s speed=0.998x    frame= 6619 fps= 30 q=31.0 size=    7438kB time=00:03:43.51 bitrate= 272.6kbits/s speed=   1x    frame= 6645 fps= 30 q=31.0 size=    7466kB time=00:03:43.56 bitrate= 273.6kbits/s speed=0.998x    frame= 6648 fps= 30 q=31.0 size=    7467kB time=00:03:44.52 bitrate= 272.4kbits/s speed=   1x    frame= 6673 fps= 30 q=24.8 size=    7508kB time=00:03:44.56 bitrate= 273.9kbits/s speed=0.998x    frame= 6678 fps= 30 q=31.0 size=    7512kB time=00:03:45.51 bitrate= 272.9kbits/s speed=0.999x    frame= 6702 fps= 30 q=31.0 size=    7545kB time=00:03:45.60 bitrate= 274.0kbits/s speed=0.998x    frame= 6709 fps= 30 q=24.8 size=    7558kB time=00:03:46.54 bitrate= 273.3kbits/s speed=   1x    frame= 6730 fps= 30 q=31.0 size=    7574kB time=00:03:46.54 bitrate= 273.9kbits/s speed=0.997x    frame= 6737 fps= 30 q=31.0 size=    7585kB time=00:03:47.55 bitrate= 273.1kbits/s speed=   1x    frame= 6759 fps= 30 q=31.0 size=    7611kB time=00:03:47.60 bitrate= 273.9kbits/s speed=0.998x    frame= 6768 fps= 30 q=31.0 size=    7615kB time=00:03:48.55 bitrate= 272.9kbits/s speed=   1x    frame= 6788 fps= 30 q=31.0 size=    7642kB time=00:03:48.60 bitrate= 273.9kbits/s speed=0.998x    frame= 6799 fps= 30 q=31.0 size=    7654kB time=00:03:49.54 bitrate= 273.2kbits/s speed=0.999x    frame= 6818 fps= 30 q=31.0 size=    7676kB time=00:03:49.63 bitrate= 273.8kbits/s speed=0.998x    frame= 6832 fps= 30 q=31.0 size=    7689kB time=00:03:50.55 bitrate= 273.2kbits/s speed=0.999x    frame= 6847 fps= 30 q=31.0 size=    7703kB time=00:03:50.66 bitrate= 273.6kbits/s speed=0.998x    frame= 6858 fps= 30 q=31.0 size=    7714kB time=00:03:51.60 bitrate= 272.9kbits/s speed=   1x    frame= 6858 fps= 30 q=31.0 size=    7714kB time=00:03:52.08 bitrate= 272.3kbits/s speed=   1x    frame= 6868 fps= 30 q=31.0 size=    7726kB time=00:03:52.56 bitrate= 272.2kbits/s speed=0.999x    frame= 6889 fps= 30 q=24.8 size=    7751kB time=00:03:53.09 bitrate= 272.4kbits/s speed=   1x    frame= 6902 fps= 30 q=31.0 size=    7765kB time=00:03:53.57 bitrate= 272.3kbits/s speed=0.999x    frame= 6919 fps= 30 q=31.0 size=    7780kB time=00:03:54.12 bitrate= 272.2kbits/s speed=   1x    frame= 6933 fps= 30 q=31.0 size=    7793kB time=00:03:54.55 bitrate= 272.2kbits/s speed=0.999x    frame= 6946 fps= 30 q=31.0 size=    7805kB time=00:03:55.11 bitrate= 272.0kbits/s speed=   1x    frame= 6957 fps= 30 q=31.0 size=    7818kB time=00:03:55.56 bitrate= 271.9kbits/s speed=0.999x    frame= 6975 fps= 30 q=31.0 size=    7843kB time=00:03:56.11 bitrate= 272.1kbits/s speed=   1x    frame= 6990 fps= 30 q=31.0 size=    7857kB time=00:03:56.57 bitrate= 272.1kbits/s speed=0.999x    frame= 7003 fps= 30 q=31.0 size=    7870kB time=00:03:57.12 bitrate= 271.9kbits/s speed=   1x    frame= 7018 fps= 30 q=31.0 size=    7886kB time=00:03:57.58 bitrate= 271.9kbits/s speed=0.999x    frame= 7033 fps= 30 q=24.8 size=    7912kB time=00:03:58.15 bitrate= 272.2kbits/s speed=   1x    frame= 7038 fps= 29 q=31.0 size=    7914kB time=00:03:58.56 bitrate= 271.8kbits/s speed=0.999x    frame= 7064 fps= 30 q=31.0 size=    7941kB time=00:03:59.14 bitrate= 272.0kbits/s speed=   1x    frame= 7078 fps= 30 q=31.0 size=    7956kB time=00:03:59.57 bitrate= 272.0kbits/s speed=0.999x    frame= 7095 fps= 30 q=31.0 size=    7981kB time=00:04:00.15 bitrate= 272.2kbits/s speed=   1x    frame= 7099 fps= 29 q=31.0 size=    7983kB time=00:04:00.58 bitrate= 271.8kbits/s speed=0.999x    frame= 7126 fps= 30 q=31.0 size=    8009kB time=00:04:01.15 bitrate= 272.1kbits/s speed=   1x    frame= 7146 fps= 30 q=31.0 size=    8034kB time=00:04:01.59 bitrate= 272.4kbits/s speed=0.999x    frame= 7157 fps= 30 q=31.0 size=    8047kB time=00:04:02.16 bitrate= 272.2kbits/s speed=   1x    frame= 7163 fps= 30 q=31.0 size=    8050kB time=00:04:02.59 bitrate= 271.8kbits/s speed=0.999x    frame= 7187 fps= 30 q=31.0 size=    8079kB time=00:04:03.17 bitrate= 272.2kbits/s speed=   1x    frame= 7209 fps= 30 q=31.0 size=    8110kB time=00:04:03.58 bitrate= 272.7kbits/s speed=0.999x    frame= 7218 fps= 30 q=31.0 size=    8122kB time=00:04:04.18 bitrate= 272.5kbits/s speed=   1x    frame= 7229 fps= 30 q=31.0 size=    8133kB time=00:04:04.59 bitrate= 272.4kbits/s speed=0.999x    frame= 7249 fps= 30 q=24.8 size=    8156kB time=00:04:05.19 bitrate= 272.5kbits/s speed=   1x    frame= 7273 fps= 30 q=24.8 size=    8180kB time=00:04:05.59 bitrate= 272.9kbits/s speed=0.999x    frame= 7280 fps= 30 q=31.0 size=    8183kB time=00:04:06.22 bitrate= 272.3kbits/s speed=   1x    frame= 7294 fps= 30 q=31.0 size=    8196kB time=00:04:06.60 bitrate= 272.3kbits/s speed=0.999x    frame= 7311 fps= 30 q=31.0 size=    8219kB time=00:04:07.20 bitrate= 272.4kbits/s speed=   1x    frame= 7334 fps= 30 q=31.0 size=    8244kB time=00:04:07.59 bitrate= 272.8kbits/s speed=0.999x    frame= 7342 fps= 30 q=31.0 size=    8245kB time=00:04:08.21 bitrate= 272.1kbits/s speed=   1x    frame= 7364 fps= 30 q=31.0 size=    8270kB time=00:04:08.59 bitrate= 272.5kbits/s speed=0.999x    frame= 7373 fps= 30 q=31.0 size=    8281kB time=00:04:09.24 bitrate= 272.2kbits/s speed=   1x    frame= 7394 fps= 30 q=31.0 size=    8308kB time=00:04:09.60 bitrate= 272.7kbits/s speed=0.999x    frame= 7404 fps= 30 q=31.0 size=    8311kB time=00:04:10.25 bitrate= 272.1kbits/s speed=   1x    frame= 7425 fps= 30 q=31.0 size=    8336kB time=00:04:10.61 bitrate= 272.5kbits/s speed=0.999x    frame= 7435 fps= 30 q=31.0 size=    8349kB time=00:04:11.23 bitrate= 272.2kbits/s speed=   1x    frame= 7446 fps= 30 q=31.0 size=    8362kB time=00:04:11.62 bitrate= 272.3kbits/s speed=0.999x    frame= 7466 fps= 30 q=31.0 size=    8387kB time=00:04:12.27 bitrate= 272.3kbits/s speed=   1x    frame= 7486 fps= 30 q=31.0 size=    8402kB time=00:04:12.60 bitrate= 272.5kbits/s speed=0.999x    frame= 7497 fps= 30 q=31.0 size=    8415kB time=00:04:13.27 bitrate= 272.2kbits/s speed=   1x    frame= 7511 fps= 30 q=31.0 size=    8430kB time=00:04:13.61 bitrate= 272.3kbits/s speed=0.999x    frame= 7528 fps= 30 q=31.0 size=    8456kB time=00:04:14.28 bitrate= 272.4kbits/s speed=   1x    frame= 7546 fps= 30 q=31.0 size=    8470kB time=00:04:14.62 bitrate= 272.5kbits/s speed=0.999x    frame= 7558 fps= 30 q=31.0 size=    8484kB time=00:04:15.29 bitrate= 272.2kbits/s speed=   1x    frame= 7576 fps= 30 q=31.0 size=    8508kB time=00:04:15.63 bitrate= 272.7kbits/s speed=0.999x    frame= 7589 fps= 30 q=31.0 size=    8525kB time=00:04:16.01 bitrate= 272.8kbits/s speed=0.998x    frame= 7606 fps= 30 q=31.0 size=    8540kB time=00:04:16.61 bitrate= 272.6kbits/s speed=0.999x    frame= 7620 fps= 30 q=31.0 size=    8551kB time=00:04:16.86 bitrate= 272.7kbits/s speed=0.998x    frame= 7636 fps= 30 q=31.0 size=    8574kB time=00:04:17.62 bitrate= 272.6kbits/s speed=0.999x    frame= 7650 fps= 30 q=31.0 size=    8586kB time=00:04:17.86 bitrate= 272.8kbits/s speed=0.998x    frame= 7665 fps= 30 q=31.0 size=    8599kB time=00:04:18.63 bitrate= 272.4kbits/s speed=0.999x    frame= 7680 fps= 30 q=31.0 size=    8613kB time=00:04:18.90 bitrate= 272.5kbits/s speed=0.998x    frame= 7695 fps= 30 q=31.0 size=    8638kB time=00:04:19.63 bitrate= 272.5kbits/s speed=0.999x    frame= 7709 fps= 30 q=31.0 size=    8656kB time=00:04:19.90 bitrate= 272.8kbits/s speed=0.998x    frame= 7724 fps= 30 q=31.0 size=    8673kB time=00:04:20.64 bitrate= 272.6kbits/s speed=0.999x    frame= 7739 fps= 30 q=31.0 size=    8692kB time=00:04:20.93 bitrate= 272.9kbits/s speed=0.998x    frame= 7754 fps= 30 q=31.0 size=    8720kB time=00:04:21.63 bitrate= 273.0kbits/s speed=0.999x    frame= 7768 fps= 30 q=31.0 size=    8734kB time=00:04:21.93 bitrate= 273.2kbits/s speed=0.998x    frame= 7783 fps= 30 q=31.0 size=    8749kB time=00:04:22.63 bitrate= 272.9kbits/s speed=0.999x    frame= 7798 fps= 30 q=31.0 size=    8762kB time=00:04:22.96 bitrate= 272.9kbits/s speed=0.998x    frame= 7812 fps= 30 q=31.0 size=    8774kB time=00:04:23.64 bitrate= 272.6kbits/s speed=0.999x    frame= 7827 fps= 30 q=31.0 size=    8796kB time=00:04:23.96 bitrate= 273.0kbits/s speed=0.998x    frame= 7842 fps= 30 q=31.0 size=    8807kB time=00:04:24.65 bitrate= 272.6kbits/s speed=0.999x    frame= 7856 fps= 30 q=31.0 size=    8820kB time=00:04:24.93 bitrate= 272.7kbits/s speed=0.998x    frame= 7872 fps= 30 q=31.0 size=    8834kB time=00:04:25.63 bitrate= 272.4kbits/s speed=0.999x    frame= 7886 fps= 30 q=31.0 size=    8855kB time=00:04:25.96 bitrate= 272.7kbits/s speed=0.998x    frame= 7891 fps= 30 q=31.0 size=    8856kB time=00:04:26.91 bitrate= 271.8kbits/s speed=   1x    frame= 7891 fps= 29 q=31.0 size=    8856kB time=00:04:27.41 bitrate= 271.3kbits/s speed=   1x    frame= 7922 fps= 30 q=31.0 size=    8890kB time=00:04:27.91 bitrate= 271.8kbits/s speed=   1x    frame= 7922 fps= 30 q=31.0 size=    8890kB time=00:04:28.42 bitrate= 271.3kbits/s speed=   1x    frame= 7953 fps= 30 q=31.0 size=    8922kB time=00:04:28.92 bitrate= 271.8kbits/s speed=   1x    frame= 7953 fps= 30 q=31.0 size=    8922kB time=00:04:29.43 bitrate= 271.3kbits/s speed=   1x    frame= 7984 fps= 30 q=31.0 size=    8957kB time=00:04:29.93 bitrate= 271.8kbits/s speed=   1x    frame= 7984 fps= 30 q=31.0 size=    8957kB time=00:04:30.43 bitrate= 271.3kbits/s speed=   1x    frame= 8015 fps= 30 q=31.0 size=    8983kB time=00:04:30.94 bitrate= 271.6kbits/s speed=   1x    frame= 8015 fps= 30 q=31.0 size=    8983kB time=00:04:31.44 bitrate= 271.1kbits/s speed=   1x    frame= 8045 fps= 30 q=31.0 size=    9019kB time=00:04:31.95 bitrate= 271.7kbits/s speed=   1x    frame= 8045 fps= 30 q=31.0 size=    9019kB time=00:04:32.45 bitrate= 271.2kbits/s speed=   1x    frame= 8076 fps= 30 q=31.0 size=    9044kB time=00:04:32.95 bitrate= 271.4kbits/s speed=   1x    frame= 8076 fps= 30 q=31.0 size=    9044kB time=00:04:33.48 bitrate= 270.9kbits/s speed=   1x    frame= 8107 fps= 30 q=31.0 size=    9080kB time=00:04:33.96 bitrate= 271.5kbits/s speed=   1x    frame= 8107 fps= 30 q=31.0 size=    9080kB time=00:04:34.47 bitrate= 271.0kbits/s speed=   1x    frame= 8138 fps= 30 q=31.0 size=    9113kB time=00:04:34.99 bitrate= 271.5kbits/s speed=   1x    frame= 8138 fps= 30 q=31.0 size=    9113kB time=00:04:35.50 bitrate= 271.0kbits/s speed=   1x    frame= 8169 fps= 30 q=31.0 size=    9138kB time=00:04:36.00 bitrate= 271.2kbits/s speed=   1x    frame= 8169 fps= 30 q=31.0 size=    9138kB time=00:04:36.51 bitrate= 270.7kbits/s speed=   1x    frame= 8200 fps= 30 q=31.0 size=    9173kB time=00:04:37.01 bitrate= 271.3kbits/s speed=   1x    frame= 8200 fps= 30 q=31.0 size=    9173kB time=00:04:37.51 bitrate= 270.8kbits/s speed=   1x    frame= 8231 fps= 30 q=31.0 size=    9200kB time=00:04:38.02 bitrate= 271.1kbits/s speed=   1x    frame= 8231 fps= 30 q=31.0 size=    9200kB time=00:04:38.52 bitrate= 270.6kbits/s speed=   1x    frame= 8262 fps= 30 q=31.0 size=    9238kB time=00:04:39.03 bitrate= 271.2kbits/s speed=   1x    frame= 8262 fps= 30 q=31.0 size=    9238kB time=00:04:39.53 bitrate= 270.7kbits/s speed=   1x    frame= 8293 fps= 30 q=24.8 size=    9282kB time=00:04:39.70 bitrate= 271.8kbits/s speed=0.998x    frame= 8293 fps= 30 q=24.8 size=    9282kB time=00:04:40.54 bitrate= 271.0kbits/s speed=   1x    frame= 8324 fps= 30 q=31.0 size=    9310kB time=00:04:40.68 bitrate= 271.7kbits/s speed=0.998x    frame= 8324 fps= 30 q=31.0 size=    9310kB time=00:04:41.55 bitrate= 270.9kbits/s speed=   1x    frame= 8354 fps= 30 q=31.0 size=    9347kB time=00:04:41.69 bitrate= 271.8kbits/s speed=0.998x    frame= 8355 fps= 30 q=31.0 size=    9347kB time=00:04:42.55 bitrate= 271.0kbits/s speed=   1x    frame= 8385 fps= 30 q=31.0 size=    9375kB time=00:04:42.70 bitrate= 271.7kbits/s speed=0.998x    frame= 8386 fps= 30 q=31.0 size=    9375kB time=00:04:43.56 bitrate= 270.8kbits/s speed=   1x    frame= 8414 fps= 30 q=31.0 size=    9416kB time=00:04:43.68 bitrate= 271.9kbits/s speed=0.998x    frame= 8416 fps= 30 q=31.0 size=    9417kB time=00:04:44.57 bitrate= 271.1kbits/s speed=   1x    frame= 8444 fps= 30 q=31.0 size=    9447kB time=00:04:44.69 bitrate= 271.8kbits/s speed=0.998x    frame= 8447 fps= 30 q=31.0 size=    9449kB time=00:04:45.58 bitrate= 271.0kbits/s speed=   1x    frame= 8474 fps= 30 q=31.0 size=    9486kB time=00:04:45.70 bitrate= 272.0kbits/s speed=0.998x    frame= 8477 fps= 30 q=31.0 size=    9487kB time=00:04:46.59 bitrate= 271.2kbits/s speed=   1x    frame= 8504 fps= 30 q=31.0 size=    9514kB time=00:04:46.71 bitrate= 271.8kbits/s speed=0.998x    frame= 8507 fps= 30 q=31.0 size=    9515kB time=00:04:47.62 bitrate= 271.0kbits/s speed=   1x    frame= 8533 fps= 30 q=24.8 size=    9551kB time=00:04:47.71 bitrate= 271.9kbits/s speed=0.998x    frame= 8536 fps= 30 q=31.0 size=    9553kB time=00:04:48.63 bitrate= 271.1kbits/s speed=   1x    frame= 8562 fps= 30 q=31.0 size=    9580kB time=00:04:48.73 bitrate= 271.8kbits/s speed=0.998x    frame= 8566 fps= 30 q=31.0 size=    9581kB time=00:04:49.63 bitrate= 271.0kbits/s speed=   1x    frame= 8591 fps= 30 q=31.0 size=    9609kB time=00:04:49.73 bitrate= 271.7kbits/s speed=0.998x    frame= 8597 fps= 30 q=31.0 size=    9620kB time=00:04:50.64 bitrate= 271.1kbits/s speed=   1x    frame= 8622 fps= 30 q=31.0 size=    9645kB time=00:04:50.76 bitrate= 271.7kbits/s speed=0.998x    frame= 8628 fps= 30 q=31.0 size=    9647kB time=00:04:51.65 bitrate= 271.0kbits/s speed=   1x    frame= 8652 fps= 30 q=31.0 size=    9673kB time=00:04:51.76 bitrate= 271.6kbits/s speed=0.998x    frame= 8659 fps= 30 q=31.0 size=    9683kB time=00:04:52.66 bitrate= 271.1kbits/s speed=   1x    frame= 8682 fps= 30 q=31.0 size=    9709kB time=00:04:52.76 bitrate= 271.7kbits/s speed=0.998x    frame= 8690 fps= 30 q=31.0 size=    9720kB time=00:04:53.67 bitrate= 271.2kbits/s speed=   1x    frame= 8712 fps= 30 q=31.0 size=    9737kB time=00:04:53.76 bitrate= 271.5kbits/s speed=0.998x    frame= 8721 fps= 30 q=31.0 size=    9750kB time=00:04:54.67 bitrate= 271.1kbits/s speed=   1x    frame= 8742 fps= 30 q=31.0 size=    9776kB time=00:04:54.76 bitrate= 271.7kbits/s speed=0.998x    frame= 8752 fps= 30 q=31.0 size=    9787kB time=00:04:55.68 bitrate= 271.2kbits/s speed=   1x    frame= 8773 fps= 30 q=24.8 size=    9812kB time=00:04:55.80 bitrate= 271.7kbits/s speed=0.998x    frame= 8783 fps= 30 q=31.0 size=    9816kB time=00:04:56.71 bitrate= 271.0kbits/s speed=   1x    frame= 8803 fps= 30 q=31.0 size=    9841kB time=00:04:56.80 bitrate= 271.6kbits/s speed=0.998x    frame= 8814 fps= 30 q=31.0 size=    9853kB time=00:04:57.70 bitrate= 271.1kbits/s speed=   1x    frame= 8834 fps= 30 q=31.0 size=    9877kB time=00:04:57.83 bitrate= 271.7kbits/s speed=0.998x    frame= 8845 fps= 30 q=24.8 size=    9890kB time=00:04:58.56 bitrate= 271.3kbits/s speed=0.999x    frame= 8863 fps= 30 q=31.0 size=    9905kB time=00:04:58.80 bitrate= 271.6kbits/s speed=0.998x    